<svg xmlns="http://www.w3.org/2000/svg" viewBox="0 0 356.23 536.74"><defs><style>.cls-1{fill:#cfbbf9;}.cls-2{fill:#4f448e;}.cls-3{fill:#5115aa;}.cls-4,.cls-6{fill:none;}.cls-4{opacity:0.2;isolation:isolate;}.cls-5{fill:#bda6a1;}.cls-7{fill:#fddcd2;}.cls-8{fill:#df947b;}.cls-9{fill:#fff;}</style></defs><g id="Layer_2" data-name="Layer 2"><g id="Layer_9" data-name="Layer 9"><path class="cls-1" d="M108.89,490.52v18c0,15.47,30.94,28.2,69.13,28.2s69.13-12.53,69.13-28.2v-18Z"/><path class="cls-1" d="M171.17.14A178.25,178.25,0,0,0,44.65,296.25a256.12,256.12,0,0,1,42.7,66.39H268.11a234.56,234.56,0,0,1,41.71-64.43,177.62,177.62,0,0,0,46.41-119.86C356.23,77.49,272.61-3.78,171.17.14Z"/><path class="cls-2" d="M108.89,490.52v18c0,15.47,30.94,28.2,69.13,28.2s69.13-12.53,69.13-28.2v-18Z"/><path class="cls-3" d="M228.74,498.16H127.3a42,42,0,0,1-41.91-41.91V362.64H270.85v93.61A42.26,42.26,0,0,1,228.74,498.16Z"/><path class="cls-4" d="M249.7,430.59v16.65A30.8,30.8,0,0,1,219,478"/><path class="cls-5" d="M35.25,208.51l22.92,13.71a22,22,0,0,0,30.15-7.44l58-95.38a22.06,22.06,0,0,0-15.47-33.29L97.14,81A22.29,22.29,0,0,0,74.42,92.18L27,178.94a22.19,22.19,0,0,0,8.22,29.57Z"/><path class="cls-5" d="M349.38,178.16a172.06,172.06,0,0,1-39.56,109.67h-1.37A19.62,19.62,0,0,1,292.59,280l-.79-1a20.89,20.89,0,0,0-13.51-7.83l-1-.2a19.9,19.9,0,0,1-17.62-19.78V194.8a19.54,19.54,0,0,1,12.53-18.41L328,154.26a20.23,20.23,0,0,1,20.18,3.33A176.67,176.67,0,0,1,349.38,178.16Z"/><path class="cls-5" d="M218.56,146.43,187.62,128.8A14.17,14.17,0,0,1,181.54,111l13.32-31.92a14.26,14.26,0,0,0-8.62-19L170,54.58a14.29,14.29,0,0,1-8.23-20l3.53-7.24A14.11,14.11,0,0,1,177,19.52c15.67-1.17,51.31-.19,94.2,26.64C288.47,57.91,305.51,81,315.7,96.29a14.36,14.36,0,0,1-6.86,21.35l-77.75,30A16.29,16.29,0,0,1,218.56,146.43Z"/><path class="cls-6" d="M171.17.14A178.25,178.25,0,0,0,44.65,296.25a256.12,256.12,0,0,1,42.7,66.39H268.11a234.56,234.56,0,0,1,41.71-64.43,177.62,177.62,0,0,0,46.41-119.86C356.23,77.49,272.61-3.78,171.17.14Z"/><path class="cls-7" d="M251.07,62.8l-.59-.19a13.12,13.12,0,0,0-10.18,0l-1.57.59a13,13,0,0,0-8,10.38,14.35,14.35,0,0,0,.2,5.09,12.67,12.67,0,0,0,8.81,9.4l.78.19a4.68,4.68,0,0,0,2.35,0,13.68,13.68,0,0,0-1,4.7l-1.56,122.8h0l-.2,9-.78,55.61v2.94a3.92,3.92,0,0,0,3.91,3.92h1.18a3.81,3.81,0,0,0,2.74-3.72v-5.09l.78-56L249.7,93a5.8,5.8,0,0,1,1.56-3.91L255,85.52a13.46,13.46,0,0,0,4.12-9.59V74.75C259.29,69.66,256,65,251.07,62.8Zm.39,13.32A5,5,0,0,1,249.7,80L246,83.56l-.4.4a3.74,3.74,0,0,0-2.74-3.14l-.78-.19a5.35,5.35,0,0,1-3.72-5.88,5.42,5.42,0,0,1,3.33-4.31l1.56-.58a6.91,6.91,0,0,1,2-.4,8.22,8.22,0,0,1,2.16.4l.58.19a5.4,5.4,0,0,1,3.33,5.09v1Z"/><path class="cls-7" d="M20.17,172.28c0-.39-.19-.78-.19-1.18a5.5,5.5,0,0,1,.78-2.93l34.86-54.64a4.07,4.07,0,0,1-3.13,1.56,3.76,3.76,0,0,1-2-.58l-3.72-2-32.9,51.31a13.06,13.06,0,0,0-2,5.48v.79a3.57,3.57,0,0,1,2,.39l.39.19,7.83,4.9A6,6,0,0,1,20.17,172.28Zm103.21-49.55a14.3,14.3,0,0,0-6.66-8.42l-22.13-12-6.85-3.72L75,91.79a11.82,11.82,0,0,0-5.68-1.57,13.2,13.2,0,0,0-7.64,2,11.8,11.8,0,0,0-4.11,4.11l-6.27,9.8L47,112.74,14.1,164.05a13.24,13.24,0,0,0-2,5.49v.78a13.57,13.57,0,0,0,.2,3.92A20.72,20.72,0,0,0,13.71,178a11.61,11.61,0,0,0,4.5,4.7l12.93,8,6.66,4.11,20.56,12.54A10.23,10.23,0,0,0,64,209.1h1a13.08,13.08,0,0,0,6.66-1.76,2.81,2.81,0,0,0,.78-.59A13.57,13.57,0,0,0,76.18,203l33.69-52.1,4.31-6.66,7.24-11.16a13.48,13.48,0,0,0,2.16-6.66A11.64,11.64,0,0,0,123.38,122.73Zm-8.23,6.07L106,143.1a.42.42,0,0,1-.39.39h0L69.92,198.72a5.6,5.6,0,0,1-7.45,1.76L22.72,176a5,5,0,0,1-2.35-3.33c0-.39-.2-.78-.2-1.17a5.52,5.52,0,0,1,.79-2.94l34.86-54.64c.19-.2.19-.39.39-.39l8-12.73a5.42,5.42,0,0,1,4.5-2.55,6.11,6.11,0,0,1,2.55.59L113,121.36a5.52,5.52,0,0,1,2.74,3.53A4.68,4.68,0,0,1,115.15,128.8Z"/><path class="cls-7" d="M244,226.53a3.8,3.8,0,0,1-2-.59L106.93,149a3.86,3.86,0,1,1,3.92-6.65l135.13,77a3.7,3.7,0,0,1,1.37,5.29A3.81,3.81,0,0,1,244,226.53Z"/><path class="cls-7" d="M56.21,113.14a.43.43,0,0,1-.39.39,4.09,4.09,0,0,1-3.14,1.56,3.79,3.79,0,0,1-2-.58l-3.72-2L25.07,100.41a76.25,76.25,0,0,1,3.72-6.86l22.52,12.54,3.13,1.76A3.93,3.93,0,0,1,56.21,113.14Z"/><path class="cls-7" d="M67,94.73a3.42,3.42,0,0,1-1.37.19,4,4,0,0,1-3.72-2.54l-.2-.39L50.53,63c2-2.15,3.91-4.31,6.07-6.27L69.13,89.44c0,.2.2.39.2.59A4,4,0,0,1,67,94.73Z"/><path class="cls-7" d="M207.4,315.83H207L76.38,305.45a13.26,13.26,0,0,1-12.14-13.32V208.51a3.92,3.92,0,1,1,7.83,0v83.62a5.53,5.53,0,0,0,5.09,5.49L207.79,308a3.94,3.94,0,0,1,3.52,4.31A3.73,3.73,0,0,1,207.4,315.83Z"/><path class="cls-7" d="M124,126.45a4,4,0,0,1-3.72-2.54,3.9,3.9,0,0,1,2.35-5.09L232.07,78.28a4,4,0,0,1,2.74,7.44L125.14,126.26C124.75,126.26,124.36,126.45,124,126.45Z"/><path class="cls-7" d="M252.83,355a4.79,4.79,0,0,1-1.37.78H263.6c2.35-4.89,4.7-9.79,7.25-14.49Zm35.25-40.93-8.81-19.19a13.79,13.79,0,0,0-6.46-6.47L254.2,279.6a13.67,13.67,0,0,0-6.85-1.17,9.54,9.54,0,0,0-2.35.39l-5.49,1.56-17.82,5.1-14.1,4.7a20.33,20.33,0,0,0-2.35-2L72.85,206.55l-2.35-1.37-.39-.19-7.64-4.7L22.72,175.81l-7.84-4.9-.39-.2-2-1.17L7.44,166.4c-.19,2-.19,3.92-.19,5.88v3.13l5.28,3.33L19,182.66l12.92,8,6.66,4.11,20.56,12.54,5.68,3.52,7.84,4.9,128.86,79.51a5.5,5.5,0,0,1,2.55,4.7v26a12.2,12.2,0,0,0,3.13,8.43l17.63,21.34h22.91l-13.12-2.54a5.42,5.42,0,0,1-3.14-2l-18.21-21.94a5.45,5.45,0,0,1-1.17-3.52V299.58a9.3,9.3,0,0,0-.2-2.35l12.73-4.12,20.17-5.68h.39l2.55-.78a5,5,0,0,1,3.72.39l18.6,8.82a5.28,5.28,0,0,1,2.55,2.54l9.79,21a6.26,6.26,0,0,1,.39,3.33A33.1,33.1,0,0,1,288.08,314.07Z"/><path class="cls-8" d="M3.72,180.51V170.13L9.79,168a6,6,0,0,1,2-.39h.39a5.6,5.6,0,0,1,2.94.78l.78.39h0a7.29,7.29,0,0,1,2.55,3.33,6.75,6.75,0,0,1-3.92,8.62l-.19.2-1.77.58-9.2,3.33Z"/><path class="cls-9" d="M12.53,170.13a3.63,3.63,0,0,1,1.57.39l.39.19a3.56,3.56,0,0,1,1.37,2,3.75,3.75,0,0,1-2.15,4.9h-.2l-1.76.59-5.29,2v-8.42l4.31-1.56a2.44,2.44,0,0,1,1.18-.2c.39.2.39.2.58.2m0-5.88h-.78a6.26,6.26,0,0,0-2.74.59L4.7,166.4,1,167.78l-.2,3.91v9l.2,8.23L8.62,186l5.29-2,1.76-.59.39-.19.2-.2a9.86,9.86,0,0,0,5.28-12.34A10.73,10.73,0,0,0,18,166l-.2-.19-.19-.2-.4-.19-.19-.2-.2-.2a15.32,15.32,0,0,0-4.31-.78Z"/><path class="cls-8" d="M13.71,236.12c-1.18-3.33-2.35-7.05-3.33-10.57L10,224.37l18.8-35.44.39-1a6.73,6.73,0,0,1,6.07-3.72,5.74,5.74,0,0,1,3.14.78,7.23,7.23,0,0,1,3.32,3.92,6.32,6.32,0,0,1-.58,5.28l-.79,1.37L15.67,242.2Z"/><path class="cls-9" d="M35.25,187.36a5.81,5.81,0,0,1,1.76.39A3.86,3.86,0,0,1,38.58,193l-.78,1.37L16.26,235.14c-1.18-3.52-2.35-6.85-3.33-10.57L31.14,190.1l.39-1a5.56,5.56,0,0,1,3.72-1.76m0-5.88h0a9.35,9.35,0,0,0-8.62,5.29l-.39,1L8,222l-1.18,2.16.59,2.35c1,3.72,2.16,7.44,3.33,10.77L15.28,250l6.26-11.95,21.55-40.73.78-1.37a10,10,0,0,0,.78-7.45,9.36,9.36,0,0,0-4.89-5.67,7.63,7.63,0,0,0-4.51-1.38Z"/><path class="cls-8" d="M90.09,109.22a8.05,8.05,0,0,1-3.72-1,6.91,6.91,0,0,1-2.16-9.4L141.4,8l1.17-.2A92.27,92.27,0,0,1,153.15,6l6.26-.78L96,106.28A8.14,8.14,0,0,1,90.09,109.22Z"/><path class="cls-9" d="M153.54,8.56l-58.95,93.8-1.37,2a3.84,3.84,0,0,1-3.33,1.77,4.47,4.47,0,0,1-2.15-.59A4,4,0,0,1,86.56,100l1-1.56L143,10.32c3.73-.59,7-1.18,10.58-1.76m11.75-7.44L152.76,2.88C149,3.47,145.51,4.05,142,4.64l-2.54.59-1.37,2.15L82.65,95.51l-1,1.57a10,10,0,0,0,3.13,13.51,9.86,9.86,0,0,0,5.29,1.57,9.62,9.62,0,0,0,8.22-4.7l1.37-2,58.95-93.81,6.66-10.57Z"/><path class="cls-8" d="M71.48,325.23c-1.37-2.15-2.94-4.31-4.31-6.46l-2-2.74,38-18.61,105.36-51.9V177L343.9,124.49l1,2.94c.78,2.74,1.56,5.29,2.15,7.64l.59,2.55L222.28,186.18V254L121,303.88l-13.71,6.86-34.47,17Z"/><path class="cls-9" d="M341.94,128c.78,2.55,1.57,5.09,2.15,7.64L219.34,184v68l-99.68,49.15L106,308,73.83,323.86c-1.37-2.15-2.94-4.31-4.31-6.66l21.15-10.38L104.38,300l106.93-52.68V178.94L341.94,128m3.72-7.64-5.88,2.35L209.35,173.06l-3.72,1.37v68.94L101.84,294.48l-13.71,6.66L67,311.52l-6.07,2.94,3.91,5.68c1.37,2.15,2.94,4.31,4.31,6.46l2.74,4.31,4.7-2.35,32.12-15.86,13.71-6.86,99.68-49.15,3.33-1.57V187.56l121-46.81,4.9-2-1.18-5.09c-.58-2.55-1.37-5.09-2.15-7.83l-2.35-5.49Z"/></g></g></svg>