<svg id="Capa_1" enable-background="new 0 0 512 512" height="512" viewBox="0 0 512 512" width="512" xmlns="http://www.w3.org/2000/svg"><g><path d="m209.192 241h-91.34c-4.6 0-8.945 2.11-11.789 5.725s-3.873 8.334-2.79 12.805c8.586 35.465 22.459 71.72 60.249 71.72s51.662-36.255 60.249-71.72c1.083-4.47.054-9.19-2.79-12.805s-7.189-5.725-11.789-5.725z"/><path d="m163.522 0c-20.128 0-37.859 8.034-51.276 23.233-24.555 27.816-32.7 76.349-24.208 144.251 1.423 11.36 2.75 21.303 4.056 30.398 1.061 7.385 7.387 12.868 14.848 12.868h113.16c7.46 0 13.787-5.483 14.848-12.868 1.311-9.123 2.637-19.066 4.056-30.398 0-.001 0-.001 0-.002 8.491-67.9.346-116.432-24.208-144.249-13.417-15.199-31.147-23.233-51.276-23.233z"/><path d="m394.147 421.75h-91.34c-4.6 0-8.945 2.11-11.789 5.725s-3.873 8.334-2.79 12.805c8.586 35.465 22.459 71.72 60.249 71.72s51.662-36.255 60.249-71.72c1.083-4.47.054-9.19-2.79-12.805s-7.189-5.725-11.789-5.725z"/><path d="m399.753 203.983c-13.417-15.199-31.147-23.233-51.276-23.233s-37.859 8.034-51.276 23.233c-24.555 27.816-32.7 76.349-24.208 144.251 1.419 11.332 2.746 21.276 4.056 30.398 1.061 7.385 7.387 12.868 14.848 12.868h113.16c7.46 0 13.787-5.483 14.848-12.868 1.306-9.095 2.633-19.038 4.056-30.398 0-.001 0-.002 0-.003 8.492-67.899.347-116.432-24.208-144.248z"/></g></svg>