<svg id="Layer_2" data-name="Layer 2" xmlns="http://www.w3.org/2000/svg" viewBox="0 0 100.79 77.33"><defs><style>.cls-1{fill:#ee5a40;}.cls-2{fill:#56deaa;}.cls-3{fill:#0c0343;}.cls-4{fill:#f8c100;}.cls-5{fill:#fff;}</style></defs><path class="cls-1" d="M91.94,54.32a6.71,6.71,0,1,1,1.4-9.38A6.69,6.69,0,0,1,91.94,54.32Z"/><path class="cls-2" d="M88.75,35.4a18.23,18.23,0,0,1-19-30.11A18.22,18.22,0,0,1,89.49,1.37a18.23,18.23,0,0,1,6,4l-7.33,7.25a7.89,7.89,0,1,0,2.31,5.62l10.3,0A18.25,18.25,0,0,1,89.33,35.17Z"/><path class="cls-3" d="M63.62,76.23A18.41,18.41,0,0,1,48,74.77a18.48,18.48,0,0,1-8.59-20L49.8,57.18a7.75,7.75,0,0,0,6.41,9.38A7.75,7.75,0,0,0,65,60a7.61,7.61,0,0,0-1.44-5.74s-.06-.08-.08-.12c-1-1.29-2.4-2.33-7-3.46A18.27,18.27,0,0,1,42.83,34.41c0-.11,0-.23,0-.34a18.42,18.42,0,0,1,9.43-17.16l5.2,9.34a7.58,7.58,0,0,0-3,3,7.66,7.66,0,0,0-1,4.23.76.76,0,0,0,0,.15,8.16,8.16,0,0,0,6,7.25c3.41.94,5.33,1.2,7.79,2.54A13.2,13.2,0,0,1,72,47.67l.21.27a18.44,18.44,0,0,1-8.54,28.29Z"/><path class="cls-4" d="M32.16,26.82A17.84,17.84,0,0,0,11.8,20.64,18.23,18.23,0,0,0,7.23,23.1,17.82,17.82,0,1,0,28.44,51.75a17.81,17.81,0,0,0,3.72-24.93Z"/><path class="cls-5" d="M87.5,50.61v1H83.39v-.81l2.09-2c.49-.45.57-.73.57-1s-.29-.67-.87-.67a1.35,1.35,0,0,0-1.13.54l-.91-.59a2.53,2.53,0,0,1,2.16-1c1.21,0,2,.62,2,1.61a2.15,2.15,0,0,1-.91,1.71l-1.25,1.19Z"/><path class="cls-5" d="M88,48.91c0-1.79,1-2.81,2.33-2.81s2.33,1,2.33,2.81-1,2.81-2.33,2.81S88,50.71,88,48.91Zm3.4,0c0-1.23-.44-1.75-1.07-1.75s-1,.52-1,1.75.43,1.75,1,1.75S91.4,50.15,91.4,48.91Z"/></svg>