<?xml version="1.0" encoding="iso-8859-1"?>
<!-- Generator: Adobe Illustrator 19.0.0, SVG Export Plug-In . SVG Version: 6.00 Build 0)  -->
<svg version="1.1" id="Capa_1" xmlns="http://www.w3.org/2000/svg" xmlns:xlink="http://www.w3.org/1999/xlink" x="0px" y="0px"
	 viewBox="0 0 512 512" style="enable-background:new 0 0 512 512;" xml:space="preserve">
<g>
	<g>
		<rect x="137.67" y="115.82" width="65.31" height="62.3"/>
	</g>
</g>
<g>
	<g>
		<path d="M401.734,385.393c26.733-4.653,47.128-28.007,47.128-56.051V56.909C448.861,25.529,423.332,0,391.952,0H120.048
			c-31.38,0-56.909,25.529-56.909,56.909v272.433c0,28.044,20.395,51.398,47.127,56.051L60.742,512h32.234l19.44-49.699h287.166
			L419.024,512h32.234L401.734,385.393z M107.655,208.136V85.798h125.348v122.338H107.655z M313.037,298.194v30.02H198.963v-30.02
			H313.037z M118.68,298.194h30.02v30.02h-30.02V298.194z M124.159,432.282l18.005-46.03h227.671l18.005,46.03H124.159z
			 M393.32,328.214H363.3v-30.02h30.02V328.214z M278.997,208.136V85.798h125.348v122.338H278.997z"/>
	</g>
</g>
<g>
	<g>
		<rect x="309.02" y="115.82" width="65.31" height="62.3"/>
	</g>
</g>
<g>
</g>
<g>
</g>
<g>
</g>
<g>
</g>
<g>
</g>
<g>
</g>
<g>
</g>
<g>
</g>
<g>
</g>
<g>
</g>
<g>
</g>
<g>
</g>
<g>
</g>
<g>
</g>
<g>
</g>
</svg>
