<svg width="1440" height="792" viewBox="0 0 1440 792" fill="none" xmlns="http://www.w3.org/2000/svg">
<g opacity="0.2" clip-path="url(#clip0)">
<path d="M1093.37 -138.033L1090.59 -138.96C1074.83 -145.449 1058.15 -145.449 1042.4 -138.96L1034.98 -136.178C1014.59 -127.834 999.766 -109.292 996.985 -87.0414C996.059 -78.6974 996.059 -70.3534 997.912 -62.9365C1000.69 -50.884 1008.11 -38.8316 1017.37 -30.4876C1023.86 -24.9249 1031.27 -21.2165 1039.62 -18.4351L1043.32 -17.508C1047.03 -16.5809 1050.74 -16.5809 1054.44 -17.508C1051.66 -10.0911 1049.81 -2.67422 1049.81 4.74268L1042.4 586.042L1041.47 628.689L1037.76 891.989V905.896C1037.76 916.094 1046.1 924.438 1056.3 924.438C1057.22 924.438 1059.08 924.438 1060 924.438H1061.86C1069.27 922.583 1074.83 915.167 1074.83 906.823V882.718L1078.54 617.564L1086.88 4.74268C1086.88 -1.74712 1089.66 -9.16402 1094.29 -13.7996L1111.9 -30.4876C1123.95 -42.54 1131.36 -58.3009 1131.36 -75.9161V-81.4787C1131.36 -105.584 1116.53 -128.761 1093.37 -138.033ZM1094.29 -74.9889C1094.29 -67.5721 1091.51 -61.0823 1085.95 -56.4467L1068.34 -39.7587L1066.49 -37.9045C1065.56 -44.3943 1060.93 -50.8841 1053.52 -52.7383L1049.81 -53.6654C1037.76 -57.3738 1030.35 -69.4263 1032.2 -81.4787C1033.13 -90.7499 1039.62 -98.1668 1047.96 -101.875L1055.37 -104.657C1058.15 -105.584 1061.86 -106.511 1064.64 -106.511C1068.34 -106.511 1071.12 -105.584 1074.83 -104.657L1077.61 -103.729C1086.88 -100.021 1093.37 -90.7499 1093.37 -79.6245V-74.9889H1094.29Z" fill="#FFDDD2"/>
<path d="M0.746643 380.223C0.746643 378.369 -0.180088 376.515 -0.180088 374.66C-0.180088 370.025 0.746643 365.389 3.52684 360.754L168.485 102.09C164.779 106.725 159.218 109.506 153.658 109.506C150.877 109.506 147.171 108.579 144.39 106.725L126.782 97.4539L-27.0554 340.357C-32.6158 348.701 -35.396 357.045 -37.2494 366.316C-37.2494 367.244 -37.2494 369.098 -37.2494 370.025C-34.4692 370.025 -30.7623 370.025 -27.9821 371.879L-26.1286 372.806L10.9407 395.984C6.30704 392.276 1.67337 386.713 0.746643 380.223ZM489.135 144.737C487.282 139.174 485.428 133.611 481.721 128.049C476.161 118.778 467.82 110.434 457.626 104.871L352.905 48.317L320.47 30.7019L260.232 -1.74706C251.891 -6.38262 242.624 -8.23684 233.357 -9.16395C220.383 -10.0911 208.335 -6.38262 197.214 0.107168C189.8 4.74273 182.386 11.2325 177.753 19.5765L148.097 65.9321L127.709 97.4539L-27.0554 340.357C-32.6158 348.701 -35.396 357.045 -37.2494 366.316C-37.2494 367.244 -37.2494 369.098 -37.2494 370.025C-38.1762 375.588 -37.2494 382.077 -36.3227 388.567C-34.4692 395.057 -32.6158 400.62 -29.8356 406.182C-24.2752 414.526 -16.8613 421.943 -7.59396 427.506L53.5705 465.517L85.0794 484.987L182.386 544.322C190.727 549.885 199.994 552.666 209.262 552.666C211.115 552.666 212.042 552.666 213.895 552.666C225.016 552.666 236.137 549.885 245.404 544.322C247.258 543.395 248.185 542.468 249.111 541.541C255.598 536.905 262.086 531.342 266.719 523.925L426.117 277.314L446.506 245.792L480.795 192.947C487.282 183.675 490.062 172.55 490.989 161.425C490.989 156.789 490.062 150.299 489.135 144.737ZM449.286 174.404L405.729 242.083C405.729 243.011 404.803 243.938 403.876 243.938L235.21 504.456C227.796 516.509 212.042 519.29 199.994 512.8L11.8675 395.984C6.30705 392.276 1.67337 386.713 0.746643 380.223C0.746643 378.369 -0.180088 376.515 -0.180088 374.66C-0.180088 370.025 0.746643 365.389 3.52684 360.754L168.485 102.09C169.412 101.162 169.412 100.235 170.339 100.235L208.335 39.973C212.969 32.5561 221.309 27.9205 229.65 27.9205C233.357 27.9205 237.99 28.8476 241.697 30.7019L439.092 137.32C445.579 141.028 450.212 146.591 452.066 154.008C454.846 160.498 453.919 167.914 449.286 174.404Z" fill="#FFDDD2"/>
<path d="M1060 636.106C1057.22 636.106 1053.52 635.179 1050.74 633.325L411.29 268.97C402.022 264.334 399.242 252.282 404.803 243.938C409.436 234.666 421.484 231.885 429.824 237.448L1069.27 601.803C1078.54 606.438 1081.32 618.491 1075.76 626.835C1072.98 633.325 1066.49 636.106 1060 636.106Z" fill="#FFDDD2"/>
<path d="M170.339 99.308C170.339 100.235 169.412 101.162 168.485 101.162C164.778 105.798 159.218 108.579 153.658 108.579C150.877 108.579 147.171 107.652 144.39 105.798L126.782 96.5267L22.9882 39.0458C28.5486 27.9205 34.109 16.7951 40.5962 6.59689L147.171 65.932L161.998 74.276C172.192 78.9116 175.899 90.964 170.339 99.308Z" fill="#FFDDD2"/>
<path d="M222.236 12.1596C219.456 13.0867 217.602 14.0138 214.822 14.0138C207.408 14.0138 199.994 9.37823 197.214 1.96133L196.287 0.107101L143.464 -137.105C152.731 -147.304 161.998 -157.502 172.192 -166.773L231.503 -11.9453C231.503 -11.0182 232.43 -10.0911 232.43 -9.16402C235.21 0.107101 230.577 9.37822 222.236 12.1596Z" fill="#FFDDD2"/>
<path d="M886.704 1059.8C885.777 1059.8 885.777 1059.8 884.851 1059.8L266.719 1010.66C234.284 1007.88 209.262 980.992 209.262 947.616V551.739C209.262 541.541 217.602 533.197 227.796 533.197C237.99 533.197 246.331 541.541 246.331 551.739V947.616C246.331 960.595 256.525 972.648 270.426 973.575L888.558 1022.71C898.752 1023.64 906.165 1032.91 905.239 1043.11C904.312 1052.38 896.898 1059.8 886.704 1059.8Z" fill="#FFDDD2"/>
<path d="M490.989 162.352C483.575 162.352 476.161 157.716 473.381 150.299C469.674 141.028 474.308 129.903 484.502 126.194L1002.55 -65.7178C1011.81 -69.4262 1022.93 -64.7907 1026.64 -54.5924C1030.35 -45.3213 1025.71 -34.196 1015.52 -30.4875L497.476 161.425C495.622 162.352 493.769 162.352 490.989 162.352Z" fill="#FFDDD2"/>
<path d="M1101.71 1244.29C1099.85 1246.15 1097.07 1247.07 1095.22 1248H1152.68C1163.8 1224.82 1174.92 1201.64 1186.97 1179.39L1101.71 1244.29ZM1267.59 1050.53L1225.89 959.668C1219.4 946.689 1209.21 935.563 1195.31 929.073L1107.27 887.353C1097.07 882.718 1085.95 880.864 1074.83 881.791C1071.12 881.791 1067.42 882.718 1063.71 883.645L1037.76 891.062L953.429 915.167L886.704 937.418C882.997 933.709 879.29 930.928 875.583 928.146L249.111 542.468L237.99 535.978L236.137 535.051L199.994 512.8L11.8674 395.984L-25.2019 372.806L-27.0554 371.879L-36.3227 366.316L-60.4178 351.483C-61.3445 360.754 -61.3445 370.025 -61.3445 379.296C-61.3445 383.932 -61.3445 389.494 -61.3445 394.13L-36.3227 409.891L-5.74051 428.433L55.4239 466.445L86.9329 485.914L184.24 545.249L211.115 561.937L248.185 585.115L857.976 961.522C865.389 966.158 870.023 974.502 870.023 983.773V1108.01C870.023 1122.84 874.657 1136.75 884.851 1147.87L968.257 1248.93H1076.68L1014.59 1236.87C1009.03 1235.95 1003.47 1232.24 999.766 1227.6L913.58 1123.77C909.873 1119.13 908.019 1113.57 908.019 1107.08V982.846C908.019 979.138 908.019 975.429 907.092 971.721L967.33 952.251L1062.78 925.365H1064.64L1076.68 921.657C1082.25 919.802 1088.73 920.73 1094.29 923.511L1182.33 965.231C1187.89 968.012 1192.53 972.648 1194.38 977.283L1240.72 1076.48C1242.57 1081.12 1243.5 1086.68 1242.57 1092.25C1249.06 1077.41 1258.32 1063.5 1267.59 1050.53Z" fill="#FFDDD2"/>
<path d="M-35.396 370.025C-32.6158 370.025 -29.8356 370.952 -27.9821 371.879L-26.1286 372.806C-23.3484 374.66 -20.5682 378.369 -19.6415 382.077C-15.9346 391.348 -20.5682 401.547 -29.8356 405.255C-29.8356 405.255 -29.8356 405.255 -30.7623 405.255L-39.1029 408.036L-64.1247 417.308C-64.1247 413.599 -64.1247 410.818 -64.1247 407.109V406.182C-64.1247 401.547 -64.1247 396.911 -64.1247 392.276C-64.1247 387.64 -64.1247 382.077 -64.1247 377.442L-43.7366 370.025C-41.8831 369.098 -40.0296 369.098 -38.1762 369.098C-36.3227 370.025 -36.3227 370.025 -35.396 370.025ZM-35.396 342.211C-36.3227 342.211 -37.2494 342.211 -39.1029 342.211C-43.7366 342.211 -48.3702 343.139 -52.0772 344.993L-72.4653 352.41L-90.0733 358.899L-91 377.442C-91 383.004 -91 387.64 -91 393.203C-91 397.838 -91 402.474 -91 408.036V408.964C-91 412.672 -91 416.38 -91 420.089L-90.0733 459.028L-53.9306 445.121L-28.9088 435.85L-20.5682 433.068L-18.7148 431.214H-17.788C4.45358 421.016 15.5744 395.984 7.23379 372.806C3.52685 363.535 -2.03355 356.118 -9.44743 350.556L-10.3742 349.628L-11.3009 348.701L-13.1544 347.774H-14.0811L-15.0078 346.847C-21.495 344.066 -28.9088 342.211 -35.396 342.211Z" fill="white"/>
<path d="M-29.8355 682.462C-35.3959 666.701 -40.9563 649.085 -45.59 632.397L-47.4435 626.835L41.523 459.028L43.3764 454.392C48.9368 443.267 60.0576 436.777 72.1052 436.777C77.6656 436.777 82.2992 437.704 86.9329 440.485C94.3468 444.194 99.9072 451.611 102.687 459.028C105.468 467.372 104.541 475.716 99.9072 484.06L96.2002 490.549L-19.6415 712.129L-29.8355 682.462Z" fill="#E29578"/>
<path d="M72.1051 450.684C74.8853 450.684 77.6655 451.611 80.4457 452.538C89.7131 457.173 92.4933 468.299 87.8596 477.57L85.0794 484.987L-16.8613 677.826C-22.4217 661.138 -27.9821 645.377 -32.6158 627.762L53.5705 464.59L55.4239 459.955C59.1309 454.392 65.618 450.684 72.1051 450.684ZM72.1051 422.87C54.4972 422.87 38.7427 432.141 31.3289 447.902L29.4754 452.538L-56.7108 614.782L-62.2712 624.981L-59.491 636.106C-54.8574 653.721 -49.297 671.336 -43.7366 687.097L-22.4217 747.359L7.23379 690.806L109.174 497.966L112.881 491.477C118.442 480.351 120.295 467.372 116.588 456.246C112.881 444.194 104.541 434.923 93.42 429.36C86.9329 424.725 79.519 422.87 72.1051 422.87Z" fill="white"/>
<path d="M331.591 80.7658C325.103 80.7658 319.543 78.9116 313.983 76.1302C299.155 66.8591 294.521 46.4626 303.789 31.6288L574.395 -399.478L579.955 -400.405C596.636 -404.114 612.391 -406.895 629.999 -408.749L659.654 -413.385L358.466 65.932C352.905 75.2031 342.711 80.7658 331.591 80.7658Z" fill="#E29578"/>
<path d="M631.852 -394.843L352.905 48.317L346.418 57.5881C342.711 63.1508 337.151 65.9321 330.664 65.9321C326.957 65.9321 324.177 65.005 320.47 63.1508C312.129 57.5881 309.349 46.4627 314.909 37.1916L319.543 29.7747L581.809 -387.426C598.49 -390.207 615.171 -392.988 631.852 -394.843ZM687.456 -431L628.145 -422.656C610.537 -419.875 593.856 -417.093 577.175 -414.312L565.128 -411.531L558.64 -401.332L296.375 15.868L291.741 23.2849C278.767 44.6085 285.254 73.349 306.569 87.2557C313.983 91.8912 322.323 94.6725 331.591 94.6725C347.345 94.6725 362.173 86.3286 370.513 72.4219L377.001 63.1508L655.021 -380.009L687.456 -431Z" fill="white"/>
<path d="M243.551 1103.37C237.064 1093.17 229.65 1082.97 223.163 1072.78L213.895 1059.8L393.682 971.721L892.264 726.036V401.547L1532.64 153.081L1537.27 166.987C1540.98 179.967 1544.68 192.019 1547.47 203.145L1550.25 215.197L957.136 445.121V764.975L478.015 1001.39L413.143 1033.84L250.038 1114.5L243.551 1103.37Z" fill="#E29578"/>
<path d="M1523.37 170.696C1527.08 182.748 1530.78 194.801 1533.56 206.853L943.235 435.85V757.558L471.527 990.263L406.656 1022.71L254.672 1097.81C248.185 1087.61 240.771 1077.41 234.284 1066.29L334.371 1017.15L399.242 984.7L905.239 735.307V409.891L1523.37 170.696ZM1540.98 133.611L1513.18 144.737L895.971 383.931L878.363 390.421V409.891V716.765L387.195 958.741L322.323 990.263L222.236 1039.4L193.507 1053.31L212.042 1080.19C218.529 1090.39 225.943 1100.59 232.43 1110.79L245.404 1131.18L267.646 1120.06L419.63 1044.96L484.502 1012.51L956.209 779.808L971.964 772.391V754.776V454.392L1544.69 232.812L1567.85 223.541L1562.29 199.436C1559.51 187.384 1555.81 175.331 1552.1 162.352L1540.98 133.611Z" fill="white"/>
</g>
<defs>
<clipPath id="clip0">
<rect width="1657" height="1679" fill="white" transform="translate(-91 -431)"/>
</clipPath>
</defs>
</svg>
