<svg height="512pt" viewBox="0 -93 512.00101 512" width="512pt" xmlns="http://www.w3.org/2000/svg"><path d="m415.414062 133.589844c-12.542968 0-24.535156 2.40625-35.542968 6.777344l-30.6875-51.824219v-27.324219c7.433594-.984375 13.175781-7.328125 13.175781-15.03125 0-8.382812-6.796875-15.175781-15.179687-15.175781h-47.019532c-8.382812 0-15.175781 6.792969-15.175781 15.175781s6.792969 15.179688 15.175781 15.179688h18.667969v16.15625h-168.582031l14.613281-58.675782c1.128906-4.535156.109375-9.335937-2.769531-13.015625-2.875-3.679687-7.285156-5.832031-11.957032-5.832031h-53.09375c-8.382812 0-15.175781 6.796875-15.175781 15.179688 0 8.382812 6.792969 15.175781 15.175781 15.175781h33.667969l-25.800781 103.597656c-2.742188-.234375-5.515625-.363281-8.320312-.363281-53.257813 0-96.585938 43.328125-96.585938 96.585937 0 53.257813 43.328125 96.585938 96.585938 96.585938 53.257812 0 96.585937-43.328125 96.585937-96.585938 0-39.859375-24.269531-74.152343-58.808594-88.886719l4.925781-19.777343 127.203126 119.714843c.082031.078126.179687.148438.265624.226563.214844.195313.4375.390625.667969.574219.160157.128906.328125.25.492188.371094.222656.160156.445312.324218.675781.472656.199219.132812.40625.25.609375.371094.210937.125.421875.25.640625.363281.253906.132812.515625.25.777344.371093.152344.070313.292968.148438.449218.214844.039063.015625.078126.023438.117188.042969.269531.109375.542969.199219.820312.292969.195313.066406.386719.140625.582032.199218.21875.066407.441406.109376.664062.164063.257813.066406.515625.140625.777344.191406.023438.003907.046875.003907.066406.007813.929688.175781 1.863282.265625 2.792969.265625.035156 0 .070313-.003907.105469-.003907h43.03125c7.300781 46.074219 47.292968 81.410157 95.386718 81.410157 53.257813 0 96.585938-43.328125 96.585938-96.585938 0-53.257812-43.328125-96.585937-96.585938-96.585937zm-252.597656 96.585937c0 36.519531-29.710937 66.230469-66.230468 66.230469-36.519532 0-66.230469-29.710938-66.230469-66.230469s29.710937-66.230469 66.230469-66.230469c.285156 0 .5625.019532.847656.023438l-15.578125 62.539062c-2.023438 8.132813 2.929687 16.371094 11.0625 18.394532 1.230469.308594 2.464843.453125 3.679687.453125 6.804688 0 12.996094-4.609375 14.71875-11.511719l15.570313-62.53125c21.316406 11.019531 35.929687 33.257812 35.929687 58.863281zm225.96875-15.179687h-37.824218c2.964843-12.601563 9.539062-23.824219 18.570312-32.515625zm-68.761718 0h-20.386719l36.757812-88.476563 17.382813 29.355469c-17.648438 14.660156-30.003906 35.476562-33.753906 59.121094zm-8.757813-107.117188-39.964844 96.191406-102.203125-96.191406zm104.148437 188.527344c-31.296874 0-57.570312-21.828125-64.453124-51.054688h64.453124c5.453126 0 10.488282-2.925781 13.1875-7.660156 2.699219-4.738281 2.652344-10.558594-.128906-15.25l-32.847656-55.472656c6.25-1.960938 12.898438-3.023438 19.789062-3.023438 36.519532 0 66.230469 29.710938 66.230469 66.230469s-29.710937 66.230469-66.230469 66.230469zm0 0"/></svg>