<svg width="448" height="416" viewBox="0 0 448 416" fill="none" xmlns="http://www.w3.org/2000/svg">
<g clip-path="url(#clip0)">
<path d="M330.975 318C390.516 318 438.783 309.7 438.783 299.462C438.783 289.223 390.516 280.923 330.975 280.923C271.435 280.923 223.168 289.223 223.168 299.462C223.168 309.7 271.435 318 330.975 318Z" fill="#2B2638"/>
<path d="M296.358 287.469V296.464C296.358 304.209 311.838 310.555 330.975 310.555C350.112 310.555 365.592 304.309 365.592 296.464V287.469H296.358Z" fill="#CFBBF9"/>
<path d="M327.568 42.4233C279.376 44.2722 241.703 83.3476 241.803 131.467C241.803 154.053 250.22 174.74 264.196 190.38C273.013 200.374 280.277 211.517 285.588 223.559H376.162C381.272 211.817 388.335 200.974 397.052 191.38C411.48 175.54 420.297 154.603 420.297 131.467C420.297 81.099 378.366 40.4745 327.568 42.4233Z" fill="#CFBBF9"/>
<path d="M296.358 287.469V296.464C296.358 304.209 311.838 310.555 330.975 310.555C350.112 310.555 365.592 304.309 365.592 296.464V287.469H296.358Z" fill="#4F448E"/>
<path d="M356.424 291.267H305.576C294.004 291.267 284.586 281.873 284.586 270.33V223.559H377.515V270.33C377.414 281.873 367.996 291.267 356.424 291.267Z" fill="#5115AA"/>
<path d="M259.488 146.558L270.96 153.403C276.17 156.552 282.933 154.853 286.089 149.706L315.145 102.036C319.253 95.2901 315.145 86.5955 307.38 85.3963L290.497 82.8479C285.889 82.1483 281.38 84.3969 279.126 88.4444L255.38 131.817C252.524 136.964 254.378 143.51 259.488 146.558Z" fill="#BDA6A1"/>
<path d="M416.841 131.367C416.841 151.405 409.777 170.793 397.002 186.183C396.802 186.183 396.501 186.183 396.301 186.183C393.345 186.183 390.34 184.934 388.336 182.285L387.935 181.786C386.282 179.637 383.827 178.238 381.172 177.888L380.671 177.788C375.661 177.189 371.854 172.991 371.854 167.894V139.712C371.854 135.615 374.309 131.967 378.116 130.518L406.07 119.475C409.627 118.126 413.434 118.875 416.189 121.124C416.64 124.422 416.841 127.87 416.841 131.367Z" fill="#BDA6A1"/>
<path d="M351.315 115.527L335.835 106.733C332.679 104.984 331.426 101.136 332.779 97.8385L339.442 81.8985C340.995 78.1009 339.041 73.6537 335.133 72.4045L326.968 69.6562C322.86 68.307 320.906 63.61 322.86 59.6625L324.613 56.0647C325.715 53.8161 327.97 52.3671 330.525 52.1672C338.39 51.5676 356.224 52.0672 377.715 65.4588C386.332 71.3551 394.898 82.8979 400.008 90.4931C402.563 94.2907 400.91 99.4874 396.552 101.136L357.627 116.127C355.422 116.677 353.168 116.627 351.315 115.527Z" fill="#BDA6A1"/>
<path d="M367.596 73.7536L367.295 73.6537C365.642 72.9541 363.838 72.9541 362.185 73.6537L361.384 73.9535C359.229 74.8529 357.676 76.8017 357.376 79.1502C357.276 80.0497 357.276 80.8991 357.476 81.6986C357.777 82.9478 358.578 84.247 359.53 85.1464C360.231 85.7461 360.983 86.1458 361.885 86.3957L362.285 86.4956C362.686 86.5955 363.087 86.5955 363.488 86.4956C363.187 87.2951 362.987 88.0446 362.987 88.8441L362.185 150.206L362.085 154.703L361.684 182.485V183.934C361.684 185.034 362.586 185.883 363.638 185.883C363.738 185.883 363.938 185.883 364.039 185.883H364.239C365.041 185.683 365.592 184.884 365.592 184.034V181.486L365.992 153.503L366.894 88.7942C366.894 88.0946 367.195 87.3451 367.696 86.8454L369.549 85.0965C370.802 83.8473 371.603 82.1483 371.603 80.2995V79.6999C371.703 77.1515 370.05 74.803 367.596 73.7536ZM367.796 80.3994C367.796 81.1989 367.495 81.8485 366.894 82.3482L365.041 84.0971L364.84 84.297C364.74 83.5974 364.239 82.9478 363.488 82.748L363.087 82.648C361.834 82.2483 361.033 80.9991 361.233 79.6999C361.333 78.7005 362.035 77.951 362.886 77.5512L363.688 77.2514C363.989 77.1515 364.389 77.0515 364.69 77.0515C365.091 77.0515 365.391 77.1515 365.792 77.2514L366.093 77.3514C367.095 77.7511 367.746 78.7005 367.746 79.8998V80.3994H367.796Z" fill="#FDDCD2"/>
<path d="M251.923 128.419C251.923 128.219 251.823 128.019 251.823 127.82C251.823 127.32 251.923 126.82 252.223 126.371L269.707 99.0877C269.306 99.5874 268.705 99.8872 268.154 99.8872C267.853 99.8872 267.453 99.7872 267.152 99.5874L265.299 98.588L248.817 124.222C248.316 125.021 247.915 125.971 247.815 126.97C247.815 127.07 247.815 127.27 247.815 127.37C248.116 127.37 248.516 127.37 248.817 127.57L249.017 127.67L252.925 130.118C252.524 129.818 252.123 129.219 251.923 128.419ZM303.622 103.685C303.422 103.085 303.222 102.486 302.821 101.936C302.22 100.937 301.368 100.087 300.266 99.4874L289.195 93.5412L285.738 91.6923L279.376 88.2445C278.474 87.7448 277.522 87.445 276.52 87.445C275.168 87.3451 273.865 87.7448 272.713 88.4444C271.911 88.9441 271.16 89.6436 270.659 90.4931L267.503 95.39L265.349 98.7379L248.867 124.372C248.366 125.171 247.965 126.121 247.865 127.12C247.865 127.22 247.865 127.42 247.865 127.52C247.765 128.119 247.865 128.769 247.965 129.469C248.166 130.168 248.366 130.718 248.667 131.317C249.168 132.317 249.919 133.066 250.921 133.666L257.383 137.663L260.74 139.712L271.06 145.958C271.961 146.558 272.913 146.858 273.915 146.858C274.116 146.858 274.216 146.858 274.416 146.858C275.618 146.858 276.771 146.558 277.773 145.958C277.973 145.858 278.073 145.758 278.173 145.658C278.875 145.159 279.526 144.559 280.027 143.81L296.909 117.776L299.064 114.428L302.67 108.832C303.372 107.832 303.672 106.683 303.773 105.484C303.823 104.834 303.722 104.284 303.622 103.685ZM299.514 106.733L294.906 113.878C294.906 113.978 294.805 114.078 294.705 114.078L276.871 141.661C276.069 142.91 274.416 143.21 273.164 142.56L253.225 130.318C252.624 129.918 252.123 129.319 252.023 128.669C252.023 128.469 251.923 128.269 251.923 128.069C251.923 127.57 252.023 127.07 252.324 126.62L269.807 99.3375C269.907 99.2376 269.907 99.1376 270.008 99.1376L274.015 92.7916C274.516 91.9921 275.368 91.5424 276.27 91.5424C276.67 91.5424 277.171 91.6424 277.522 91.8422L298.412 103.085C299.114 103.485 299.615 104.085 299.765 104.834C300.015 105.334 299.915 106.133 299.514 106.733Z" fill="#FDDCD2"/>
<path d="M364.039 155.552C363.738 155.552 363.337 155.452 363.037 155.252L295.357 116.777C294.355 116.277 294.104 115.028 294.655 114.128C295.156 113.129 296.409 112.879 297.31 113.429L364.991 151.904C365.993 152.404 366.243 153.653 365.692 154.553C365.441 155.152 364.74 155.552 364.039 155.552Z" fill="#FDDCD2"/>
<path d="M269.957 98.8878C269.957 98.9877 269.857 99.0877 269.757 99.0877C269.356 99.5874 268.755 99.8872 268.204 99.8872C267.903 99.8872 267.503 99.7873 267.202 99.5874L265.349 98.588L254.377 92.5418C254.979 91.3425 255.58 90.1933 256.231 89.094L267.503 95.34L269.056 96.2395C270.058 96.7392 270.458 97.8884 269.957 98.8878Z" fill="#FDDCD2"/>
<path d="M275.368 89.6936C275.168 89.7935 274.867 89.7935 274.667 89.7935C273.865 89.7935 273.114 89.2938 272.813 88.5443L272.713 88.3444L267.102 73.8536C268.104 72.7542 269.056 71.7049 270.158 70.7055L276.42 87.0453C276.42 87.1452 276.52 87.2451 276.52 87.3451C276.821 88.3444 276.27 89.2938 275.368 89.6936Z" fill="#FDDCD2"/>
<path d="M345.703 200.174C345.603 200.174 345.603 200.174 345.503 200.174L280.077 194.977C276.621 194.678 274.016 191.829 274.016 188.332V146.558C274.016 145.459 274.917 144.609 275.969 144.609C277.021 144.609 277.923 145.508 277.923 146.558V188.332C277.923 189.681 279.025 190.98 280.478 191.08L345.904 196.277C347.006 196.377 347.757 197.376 347.657 198.425C347.657 199.375 346.806 200.174 345.703 200.174Z" fill="#FDDCD2"/>
<path d="M303.923 105.534C303.121 105.534 302.37 105.034 302.069 104.284C301.668 103.285 302.169 102.136 303.272 101.736L358.077 81.4488C359.079 81.049 360.231 81.5487 360.632 82.648C361.033 83.6474 360.532 84.7967 359.43 85.1964L304.524 105.434C304.324 105.434 304.123 105.534 303.923 105.534Z" fill="#FDDCD2"/>
<path d="M368.497 219.762C368.297 219.962 367.996 220.062 367.796 220.162H373.857C375.06 217.713 376.212 215.265 377.464 212.916L368.497 219.762ZM386.131 199.275L381.722 189.681C381.021 188.332 379.969 187.132 378.466 186.433L369.148 182.036C368.046 181.536 366.894 181.336 365.692 181.436C365.291 181.436 364.89 181.536 364.489 181.636L361.734 182.435L352.817 184.984L345.753 187.332C345.352 186.932 344.952 186.633 344.551 186.333L278.223 145.508L277.021 144.809L276.821 144.709L273.013 142.36L253.075 130.118L249.167 127.67L248.967 127.57L247.965 126.97L245.41 125.421C245.31 126.42 245.31 127.37 245.31 128.369C245.31 128.869 245.31 129.469 245.31 129.918L247.965 131.567L251.221 133.516L257.684 137.514L261.04 139.562L271.36 145.808L274.216 147.557L278.123 150.006L342.747 189.881C343.549 190.38 344 191.23 344 192.229V205.221C344 206.77 344.501 208.269 345.553 209.418L354.37 220.062H365.842L359.279 218.812C358.678 218.712 358.077 218.313 357.726 217.813L348.609 206.87C348.208 206.37 348.008 205.771 348.008 205.121V192.029C348.008 191.629 348.008 191.23 347.907 190.83L354.27 188.781L364.389 185.933H364.589L365.842 185.533C366.443 185.333 367.094 185.433 367.695 185.733L377.013 190.13C377.614 190.43 378.115 190.93 378.266 191.38L383.175 201.873C383.376 202.373 383.476 202.972 383.376 203.522C384.077 202.023 385.079 200.674 386.131 199.275Z" fill="#FDDCD2"/>
<path d="M243.657 132.567C243.657 132.167 243.657 131.867 243.657 131.467C243.657 130.868 243.657 130.368 243.657 129.918C243.657 129.419 243.657 128.819 243.657 128.369V127.37L246.713 126.271C247.013 126.171 247.314 126.071 247.715 126.071C247.715 126.071 247.815 126.071 247.915 126.071C248.416 126.071 248.917 126.171 249.368 126.47L249.769 126.67C250.37 127.07 250.771 127.67 251.021 128.319C251.622 130.068 250.821 131.917 249.067 132.617L248.967 132.717L248.065 133.016L243.457 134.665L243.657 132.567Z" fill="#DF947B"/>
<path d="M248.116 127.37C248.416 127.37 248.717 127.47 248.917 127.57L249.118 127.67C249.418 127.87 249.719 128.269 249.819 128.669C250.22 129.668 249.719 130.718 248.717 131.118C248.717 131.118 248.717 131.118 248.617 131.118L247.715 131.417L245.06 132.417C245.06 132.017 245.06 131.717 245.06 131.317V131.217C245.06 130.718 245.06 130.218 245.06 129.768C245.06 129.269 245.06 128.669 245.06 128.219L247.214 127.42C247.414 127.32 247.615 127.32 247.815 127.32C248.015 127.37 248.015 127.37 248.116 127.37ZM248.116 124.422C248.015 124.422 247.915 124.422 247.715 124.422C247.214 124.422 246.713 124.522 246.362 124.722L244.208 125.521L242.355 126.221L242.254 128.169C242.254 128.769 242.254 129.269 242.254 129.818C242.254 130.318 242.254 130.818 242.254 131.367V131.467C242.254 131.867 242.254 132.267 242.254 132.667L242.355 136.764L246.162 135.315L248.817 134.316L249.719 134.016L249.919 133.916L250.019 133.816C252.374 132.717 253.576 130.118 252.674 127.67C252.274 126.67 251.673 125.921 250.921 125.321L250.821 125.221L250.721 125.121L250.52 125.021L250.42 124.921L250.32 124.822C249.568 124.622 248.867 124.422 248.116 124.422Z" fill="white"/>
<path d="M248.667 160.349C248.065 158.7 247.464 156.801 247.013 155.052L246.813 154.453L256.231 136.764L256.431 136.264C257.033 135.065 258.185 134.415 259.487 134.415C260.089 134.415 260.589 134.515 261.04 134.815C261.842 135.215 262.393 136.014 262.694 136.764C262.994 137.663 262.894 138.513 262.393 139.412L261.992 140.112L249.668 163.397L248.667 160.349Z" fill="#DF947B"/>
<path d="M259.488 135.965C259.788 135.965 260.089 136.064 260.389 136.164C261.391 136.664 261.642 137.813 261.191 138.813L260.79 139.512L250.019 159.849C249.418 158.101 248.817 156.402 248.366 154.553L257.484 137.314L257.684 136.814C258.085 136.364 258.786 135.965 259.488 135.965ZM259.488 133.066C257.634 133.066 255.931 134.066 255.179 135.715L254.979 136.214L245.861 153.354L245.26 154.453L245.561 155.652C246.062 157.501 246.663 159.35 247.214 161.049L249.468 167.395L252.624 161.448L263.395 141.111L263.796 140.412C264.397 139.212 264.597 137.863 264.197 136.714C263.796 135.465 262.944 134.465 261.742 133.866C261.041 133.216 260.239 133.066 259.488 133.066Z" fill="white"/>
<path d="M286.94 96.939C286.239 96.939 285.688 96.7392 285.087 96.4393C283.534 95.44 283.033 93.2913 283.985 91.7423L312.64 46.3209L313.241 46.2209C314.994 45.8212 316.698 45.5214 318.551 45.3215L321.707 44.9218L289.896 95.44C289.195 96.2395 288.143 96.939 286.94 96.939Z" fill="#DF947B"/>
<path d="M318.752 46.6207L289.245 93.4912L288.543 94.4906C288.143 95.0902 287.541 95.39 286.89 95.39C286.489 95.39 286.189 95.2901 285.788 95.0902C284.886 94.4906 284.586 93.3413 285.187 92.3419L285.688 91.5424L313.441 47.5201C315.295 47.2203 316.948 46.9205 318.752 46.6207ZM324.613 42.923L318.351 43.8224C316.497 44.1222 314.744 44.4221 312.94 44.7219L311.688 44.9717L310.987 46.071L283.233 90.0933L282.732 90.8928C281.38 93.1414 282.031 96.1895 284.285 97.6386C285.087 98.1383 285.938 98.4381 286.94 98.4381C288.594 98.4381 290.197 97.5387 291.048 96.0896L291.75 95.0902L321.256 48.2197L324.613 42.923Z" fill="white"/>
<path d="M277.622 204.871C276.921 203.772 276.17 202.722 275.468 201.623L274.466 200.274L293.503 190.98L346.304 165.046V130.818L414.085 104.584L414.586 106.033C414.987 107.382 415.387 108.682 415.688 109.831L415.988 111.08L353.168 135.415V169.294L302.47 194.228L295.607 197.676L278.324 206.17L277.622 204.871Z" fill="#DF947B"/>
<path d="M413.133 106.333C413.534 107.582 413.934 108.882 414.235 110.131L351.715 134.316V168.294L301.769 192.879L294.905 196.327L278.825 204.272C278.123 203.172 277.372 202.123 276.67 200.924L287.291 195.727L294.154 192.279L347.707 165.946V131.817L413.133 106.333ZM414.986 102.486L412.031 103.685L346.705 128.819L344.852 129.519V131.567V163.947L292.852 189.481L285.988 192.829L275.368 198.025L272.312 199.475L274.266 202.323C274.967 203.422 275.719 204.471 276.42 205.571L277.773 207.719L280.127 206.52L296.208 198.575L303.071 195.127L353.017 170.543L354.67 169.743V167.894V136.014L415.287 112.629L417.742 111.63L417.141 109.081C416.84 107.832 416.439 106.533 416.038 105.184L414.986 102.486Z" fill="white"/>
<path d="M330.975 2.49843V22.3859" stroke="#5115AA" stroke-width="10" stroke-miterlimit="10" stroke-linecap="round"/>
<path d="M264.848 20.1873L274.867 37.3265" stroke="#5115AA" stroke-width="10" stroke-miterlimit="10" stroke-linecap="round"/>
<path d="M216.505 68.4569L233.788 78.3507" stroke="#5115AA" stroke-width="10" stroke-miterlimit="10" stroke-linecap="round"/>
<path d="M445.495 68.4569L428.212 78.3507" stroke="#5115AA" stroke-width="10" stroke-miterlimit="10" stroke-linecap="round"/>
<path d="M397.102 20.1873L387.133 37.3265" stroke="#5115AA" stroke-width="10" stroke-miterlimit="10" stroke-linecap="round"/>
</g>
<g clip-path="url(#clip1)">
<path d="M143.533 416C222.805 416 287.067 404.923 287.067 391.258C287.067 377.593 222.805 366.516 143.533 366.516C64.2621 366.516 0 377.593 0 391.258C0 404.923 64.2621 416 143.533 416Z" fill="#2B2638"/>
<path d="M266.857 169.311C266.857 101.22 211.632 46 143.533 46C75.4349 46 20.1426 101.22 20.1426 169.311C20.1426 191.186 25.8786 211.726 35.8165 229.533L112.385 381.388C125.258 406.93 161.742 406.93 174.614 381.388L251.183 229.533C261.121 211.793 266.857 191.252 266.857 169.311ZM143.533 205.658C123.591 205.658 107.45 189.518 107.45 169.578C107.45 149.637 123.591 133.498 143.533 133.498C163.476 133.498 179.617 149.637 179.617 169.578C179.617 189.518 163.409 205.658 143.533 205.658Z" fill="#5115AA"/>
<path d="M145.882 183.989C153.845 182.697 159.252 175.195 157.96 167.232C156.668 159.27 149.165 153.863 141.202 155.155C133.239 156.447 127.831 163.95 129.123 171.912C130.416 179.874 137.919 185.281 145.882 183.989Z" fill="#2B2638"/>
</g>
<defs>
<clipPath id="clip0">
<rect width="234" height="318" fill="white" transform="translate(214)"/>
</clipPath>
<clipPath id="clip1">
<rect width="287" height="370" fill="white" transform="translate(0 46)"/>
</clipPath>
</defs>
</svg>
