<?xml version="1.0" encoding="utf-8"?>
<!-- Generator: Adobe Illustrator 22.0.1, SVG Export Plug-In . SVG Version: 6.00 Build 0)  -->
<svg version="1.1" id="Layer_1" xmlns="http://www.w3.org/2000/svg" xmlns:xlink="http://www.w3.org/1999/xlink" x="0px" y="0px"
	 viewBox="0 0 566.9 283.5" style="enable-background:new 0 0 566.9 283.5;" xml:space="preserve">
<style type="text/css">
	.st0{fill:#3F98BD;}
	.st1{fill:#3C3C3B;}
</style>
<g>
	<path class="st0" d="M35.4,49.6H14.1c-2.8,0-4.8,2.1-4.8,5v22.2c0,2.9,2,5,4.8,5h21.3c2.8,0,4.8-2.1,4.8-5V54.6
		C40.2,51.7,38.3,49.6,35.4,49.6z"/>
	<g>
		<path class="st1" d="M387.8,82.1c-36.8,0-53.8,20.5-53.8,64.8c0,45.6,18.2,64.1,60.1,64.1c12.1,0,22.9-1.6,33.1-3.9
			c2-0.5,3.2-2.3,3.2-4.7v-16.9c0-3.1-1.7-4-4.5-3.5c-11.3,2.1-18.9,3.4-30,3.4c-21.6,0-31.4-5.6-32.9-27.9h71
			c3.4,0,4.9-1.6,4.9-5.2v-0.5C439.2,102.6,424.2,82.1,387.8,82.1z M363.4,136.9c0.9-22.1,8.7-29.5,24.7-29.5
			c15.5,0,22.3,7.4,23.5,29.5H363.4z"/>
		<path class="st1" d="M119.7,184.5c-1.9,0.3-5.1,0.8-9,0.8c-9.6,0-13.1-3.2-13.1-20.6V86.5c0-2.6-1.5-4.2-4-4.2H72.3
			c-2.5,0-4,1.6-4,4.2v82c0,32.2,11,42.7,36.3,42.7c7.1,0,13.1-0.8,15.8-1.3c3.1-0.5,3.9-2.6,3.9-4.8v-17.2
			C124.1,184.9,122.5,183.8,119.7,184.5z"/>
		<path class="st1" d="M274.2,82.1c-7.1,0-13.1,0.8-15.8,1.3c-3.1,0.5-3.9,2.6-3.9,4.8v17.2c0,2.9,1.5,4,4.3,3.4
			c1.9-0.3,5.1-0.8,9-0.8c9.6,0,13.1,3.2,13.1,20.6v78.2c0,2.6,1.5,4.2,4,4.2h21.3c2.5,0,4-1.6,4-4.2v-82
			C310.5,92.4,299.5,82.1,274.2,82.1z"/>
		<path class="st1" d="M207.2,82.1c-7.1,0-13.1,0.8-15.8,1.3c-3.1,0.5-3.9,2.6-3.9,4.8v17.2c0,2.9,1.5,4,4.3,3.4
			c1.9-0.3,5.1-0.8,9-0.8c9.6,0,13.1,3.2,13.1,20.6v78.2c0,2.6,1.5,4.2,4,4.2h21.3c2.5,0,4-1.6,4-4.2v-82
			C243.6,92.4,232.6,82.1,207.2,82.1z"/>
		<path class="st1" d="M140.9,82.1c-7.1,0-13.1,0.8-15.8,1.3c-3.1,0.5-3.9,2.6-3.9,4.8v17.2c0,2.9,1.5,4,4.3,3.4
			c1.9-0.3,5.1-0.8,9-0.8c9.6,0,13.1,3.2,13.1,20.6v78.2c0,2.6,1.5,4.2,4,4.2h21.3c2.5,0,4-1.6,4-4.2v-82
			C177.2,92.4,166.3,82.1,140.9,82.1z"/>
		<path class="st1" d="M542.9,183.8c-8,1-13.3,1.6-19.3,1.6c-24.1,0-31.4-7.1-31.4-38.7c0-31.4,7.6-38.7,31.2-38.7
			c6.2,0,11.8,0.5,19.9,1.5c2.6,0.3,4.5-0.5,4.5-3.9V89.5c0-2.3-1.2-4-3.4-4.7c-7.6-1.8-16.4-2.7-25.8-2.7
			c-39.6,0-55.5,18.7-55.5,64.5S479,211,518.6,211c9.6,0,18.1-1,25.8-2.7c2.2-0.5,3.4-2.3,3.4-4.7v-16.1
			C547.5,184.3,545.5,183.5,542.9,183.8z"/>
	</g>
</g>
</svg>
