<svg id="color" enable-background="new 0 0 24 24" height="512" viewBox="0 0 24 24" width="512" xmlns="http://www.w3.org/2000/svg"><path d="m13.75 24h-3.5c-.414 0-.75-.336-.75-.75v-5.52l.25-15.48c0-1.241 1.01-2.25 2.25-2.25s2.25 1.009 2.25 2.25v.494l.25 14.974v5.533c0 .413-.336.749-.75.749z" fill="#607d8b"/><path d="m6.756 20.791c-.244 0-.491-.052-.727-.158-.634-.287-1.029-.898-1.029-1.595v-16.288c0-.414.336-.75.75-.75h12.5c.414 0 .75.336.75.75v16.288c0 .697-.395 1.308-1.029 1.595-.635.286-1.354.179-1.877-.281l-4.094-3.603-4.095 3.603c-.328.289-.735.439-1.149.439z" fill="#ffc107"/><path d="m20.25 4h-16.5c-.553 0-1-.448-1-1s.447-1 1-1h16.5c.553 0 1 .448 1 1s-.447 1-1 1z" fill="#2196f3"/><path d="m12 16.749-2.5 2.2v4.301c0 .414.336.75.75.75h1.75zm0-16.749c-1.156 0-2.111.877-2.236 2h2.236z" fill="#546d79"/><path d="m12 4h-7v15.038c0 .697.395 1.308 1.029 1.595.235.106.482.158.727.158.414 0 .821-.15 1.149-.439l1.595-1.403 2.5-2.2z" fill="#dea806"/><path d="m12 2h-2.236-6.014c-.553 0-1 .448-1 1s.447 1 1 1h1.25 7z" fill="#1d83d4"/></svg>