<svg id="Capa_1" enable-background="new 0 0 512 512" height="512" viewBox="0 0 512 512" width="512" xmlns="http://www.w3.org/2000/svg"><g><path d="m512 110.791-251.883-109.464c-2.625-1.145-5.609-1.145-8.234 0l-251.883 109.464z" fill="#c7c2c9"/><path d="m260.117 1.327c-2.625-1.144-5.609-1.144-8.234 0l-26.946 11.71 231.157 97.755h55.906z" fill="#a199a4"/><path d="m47.388 481.016v-37.822c0-4.552 3.69-8.241 8.241-8.241h77.264c4.552 0 8.241 3.69 8.241 8.241v37.822z" fill="#8b808e"/><path d="m209.127 481.016v-37.822c0-4.552 3.69-8.241 8.241-8.241h77.264c4.552 0 8.241 3.69 8.241 8.241v37.822z" fill="#8b808e"/><path d="m370.865 481.016v-37.822c0-4.552 3.69-8.241 8.241-8.241h77.264c4.552 0 8.241 3.69 8.241 8.241v37.822z" fill="#8b808e"/><g fill="#766d78"><path d="m456.37 434.953h-30.905c4.552 0 8.241 3.69 8.241 8.241v37.821h30.905v-37.821c.001-4.551-3.689-8.241-8.241-8.241z"/><path d="m294.632 434.953h-30.905c4.552 0 8.241 3.69 8.241 8.241v37.821h30.905v-37.821c0-4.551-3.69-8.241-8.241-8.241z"/><path d="m132.893 434.953h-30.905c4.552 0 8.241 3.69 8.241 8.241v37.821h30.905v-37.821c.001-4.551-3.689-8.241-8.241-8.241z"/><path d="m491.396 156.76h-470.792c-11.379 0-20.604-9.225-20.604-20.604v-25.365h512v25.365c0 11.379-9.225 20.604-20.604 20.604z"/></g><path d="m481.095 110.791v25.365c0 11.379-9.225 20.604-20.604 20.604h30.905c11.379 0 20.604-9.225 20.604-20.604v-25.365z" fill="#655e67"/><path d="m491.396 465.563h-470.792c-11.379 0-20.604 9.225-20.604 20.604v20.214c0 2.845 2.306 5.151 5.151 5.151h501.698c2.845 0 5.151-2.306 5.151-5.151v-20.214c0-11.379-9.225-20.604-20.604-20.604z" fill="#766d78"/><path d="m491.396 465.563h-30.905c11.379 0 20.604 9.225 20.604 20.604v20.214c0 2.845-2.306 5.151-5.151 5.151h30.905c2.845 0 5.151-2.306 5.151-5.151v-20.214c0-11.379-9.225-20.604-20.604-20.604z" fill="#655e67"/><g><path d="m390.439 179.061h54.6v255.887h-54.6z" fill="#b0aab3"/><path d="m414.133 434.948h30.905" fill="#a199a4"/><g><path d="m397.228 182.626c-1.957 9.921-10.714 17.4-21.211 17.4-11.95 0-21.634-9.684-21.634-21.634s9.684-21.634 21.634-21.634h83.445c11.95 0 21.634 9.684 21.634 21.634s-9.684 21.634-21.634 21.634c-10.498 0-19.254-7.479-21.211-17.4z" fill="#b0aab3"/><g><path d="m459.461 156.758h-36.056c11.95 0 21.634 9.684 21.634 21.634 0 4.414-1.328 8.515-3.597 11.937 3.871 5.837 10.49 9.697 18.02 9.697 11.95 0 21.634-9.684 21.634-21.634-.001-11.95-9.685-21.634-21.635-21.634z" fill="#a199a4"/></g><path d="m445.038 434.948v-270.181h-30.905v270.181" fill="#a199a4"/><path d="m459.461 207.752c-13.982 0-26.091-9.938-28.792-23.631-.826-4.186 1.898-8.249 6.086-9.075 4.187-.828 8.25 1.899 9.075 6.086 1.277 6.471 7.009 11.169 13.631 11.169 7.669 0 13.907-6.239 13.907-13.907 0-7.669-6.238-13.907-13.907-13.907h-83.445c-7.669 0-13.907 6.239-13.907 13.907 0 7.669 6.238 13.907 13.907 13.907 6.622 0 12.354-4.697 13.631-11.169.826-4.187 4.89-6.909 9.075-6.086 4.187.826 6.911 4.889 6.086 9.075-2.701 13.693-14.81 23.631-28.792 23.631-16.189 0-29.36-13.171-29.36-29.36s13.171-29.36 29.36-29.36h83.445c16.189 0 29.36 13.171 29.36 29.36s-13.171 29.36-29.36 29.36z" fill="#c7c2c9"/></g></g><circle cx="256" cy="58.767" fill="#766d78" r="23.179"/><g><path d="m228.7 179.061h54.6v255.887h-54.6z" fill="#b0aab3"/><path d="m252.394 434.948h30.906" fill="#a199a4"/><g><path d="m235.489 182.626c-1.957 9.921-10.714 17.4-21.211 17.4-11.95 0-21.634-9.684-21.634-21.634s9.684-21.634 21.634-21.634h83.445c11.95 0 21.634 9.684 21.634 21.634s-9.684 21.634-21.634 21.634c-10.498 0-19.254-7.479-21.211-17.4z" fill="#b0aab3"/><g><path d="m297.722 156.758h-36.056c11.95 0 21.634 9.684 21.634 21.634 0 4.414-1.328 8.515-3.597 11.937 3.871 5.837 10.49 9.697 18.02 9.697 11.95 0 21.634-9.684 21.634-21.634-.001-11.95-9.685-21.634-21.635-21.634z" fill="#a199a4"/></g><path d="m283.3 434.948v-270.181h-30.906v270.181" fill="#a199a4"/><path d="m297.722 207.752c-13.982 0-26.091-9.938-28.792-23.631-.826-4.186 1.898-8.249 6.086-9.075 4.187-.828 8.25 1.899 9.075 6.086 1.277 6.471 7.009 11.169 13.631 11.169 7.669 0 13.907-6.239 13.907-13.907 0-7.669-6.238-13.907-13.907-13.907h-83.445c-7.669 0-13.907 6.239-13.907 13.907 0 7.669 6.238 13.907 13.907 13.907 6.622 0 12.354-4.697 13.631-11.169.826-4.187 4.89-6.909 9.075-6.086 4.187.826 6.911 4.889 6.086 9.075-2.701 13.693-14.81 23.631-28.792 23.631-16.189 0-29.36-13.171-29.36-29.36s13.171-29.36 29.36-29.36h83.445c16.189 0 29.36 13.171 29.36 29.36s-13.171 29.36-29.36 29.36z" fill="#c7c2c9"/></g></g><g><path d="m66.962 179.061h54.6v255.887h-54.6z" fill="#b0aab3"/><path d="m90.656 434.948h30.905" fill="#a199a4"/><g><path d="m73.751 182.626c-1.957 9.921-10.714 17.4-21.211 17.4-11.95 0-21.634-9.684-21.634-21.634s9.684-21.634 21.634-21.634h83.445c11.95 0 21.634 9.684 21.634 21.634s-9.684 21.634-21.634 21.634c-10.498 0-19.254-7.479-21.211-17.4z" fill="#b0aab3"/><g><path d="m135.984 156.758h-36.056c11.95 0 21.634 9.684 21.634 21.634 0 4.414-1.328 8.515-3.597 11.937 3.871 5.837 10.49 9.697 18.02 9.697 11.95 0 21.634-9.684 21.634-21.634-.001-11.95-9.685-21.634-21.635-21.634z" fill="#a199a4"/></g><path d="m121.561 434.948v-270.181h-30.905v270.181" fill="#a199a4"/><path d="m135.984 207.752c-13.982 0-26.091-9.938-28.792-23.631-.826-4.186 1.898-8.249 6.086-9.075 4.187-.828 8.249 1.899 9.075 6.086 1.277 6.471 7.009 11.169 13.631 11.169 7.669 0 13.907-6.239 13.907-13.907 0-7.669-6.238-13.907-13.907-13.907h-83.445c-7.669 0-13.907 6.239-13.907 13.907 0 7.669 6.238 13.907 13.907 13.907 6.622 0 12.354-4.697 13.631-11.169.826-4.187 4.89-6.909 9.075-6.086 4.187.826 6.911 4.889 6.086 9.075-2.701 13.693-14.81 23.631-28.792 23.631-16.189 0-29.36-13.171-29.36-29.36s13.171-29.36 29.36-29.36h83.445c16.189 0 29.36 13.171 29.36 29.36s-13.171 29.36-29.36 29.36z" fill="#c7c2c9"/></g></g></g></svg>