<svg id="Capa_1" enable-background="new 0 0 512.613 512.613" height="512" viewBox="0 0 512.613 512.613" width="512" xmlns="http://www.w3.org/2000/svg"><g><g><g><path d="m286.375 31.375h-15.069v-16.069c0-8.284-6.716-15-15-15s-15 6.716-15 15v16.069h-15.069c-8.284 0-15 6.716-15 15s6.716 15 15 15h15.069v55.069c0 8.284 6.716 15 15 15s15-6.716 15-15v-55.069h15.069c8.284 0 15-6.716 15-15s-6.715-15-15-15z" fill="#f4da90"/><path d="m286.375 31.375h-15.069v-16.069c0-8.284-6.716-15-15-15v131.138c8.284 0 15-6.716 15-15v-55.069h15.069c8.284 0 15-6.716 15-15s-6.715-15-15-15z" fill="#e7aa60"/></g><g><g><g><g><path d="m473.569 497.306h-434.525v-137.643l217.262-98.807 217.263 98.807z" fill="#eae0db"/><path d="m256.306 260.856v236.45h217.263v-137.643z" fill="#c7bdb8"/></g><g><path d="m503.697 356.548-241.715-109.928c-3.917-1.782-8.571-1.771-12.48.028l-240.647 110.737c-7.526 3.463-10.819 12.371-7.356 19.897 2.529 5.495 7.959 8.733 13.636 8.733 2.098 0 4.231-.442 6.261-1.377l234.91-107.643 234.971 106.861c2.014.916 4.124 1.35 6.201 1.35 5.7 0 11.149-3.267 13.663-8.794 3.43-7.541.097-16.434-7.444-19.864z" fill="#a56032"/><path d="m503.697 356.548-241.715-109.928c-1.785-.812-3.724-1.233-5.676-1.3v31.676l234.971 106.861c2.014.916 4.124 1.35 6.201 1.35 5.7 0 11.149-3.267 13.663-8.794 3.43-7.542.097-16.435-7.444-19.865z" fill="#633a1e"/></g></g><g><path d="m110.378 413.79h-8.655c-8.284 0-15-6.716-15-15s6.716-15 15-15h8.655c8.284 0 15 6.716 15 15s-6.716 15-15 15z" fill="#c7bdb8"/><path d="m413.289 413.037h-14.836c-8.284 0-15-6.716-15-15s6.716-15 15-15h14.836c8.284 0 15 6.716 15 15s-6.716 15-15 15z" fill="#736e6e"/><path d="m444.198 437.814c-8.284 0-15 6.716-15 15s6.716 15 15 15h29.37v-30z" fill="#5a5656"/><path d="m63.395 417.764h-23.538c-.275 0-.542.026-.813.041v29.918c.271.015.539.041.813.041h23.538c8.284 0 15-6.716 15-15s-6.716-15-15-15z" fill="#c7bdb8"/></g></g><g><g><g><path d="m346.295 497.306h-179.977v-333.823l89.988-47.248 89.989 47.248z" fill="#fbf4f4"/><path d="m256.306 116.235v381.071h89.989v-333.823z" fill="#eae0db"/></g><g><path d="m387.88 173.304c-1.15-3.663-3.698-6.886-7.37-8.803l-58.896-30.742-58.896-30.742c-4.35-2.33-9.688-2.376-14.1-.046l-58.283 30.782-58.282 30.782c-5.172 2.732-8.338 8.383-7.967 14.223.402 6.329 4.907 11.838 11.018 13.509 3.655 1 7.609.565 10.96-1.205l54.8-28.943 55.435-28.935.014-.024v.016l54.833 28.96 55.481 28.96c5.4 2.819 12.153 2.032 16.76-1.954 4.474-3.87 6.264-10.197 4.493-15.838z" fill="#854d29"/><path d="m387.88 173.304c-1.15-3.663-3.698-6.886-7.37-8.803l-58.896-30.742-58.896-30.742c-1.991-1.067-4.191-1.63-6.412-1.731v31.887l.008-.013v.016l54.833 28.96 55.481 28.96c5.4 2.819 12.153 2.032 16.76-1.954 4.473-3.87 6.263-10.197 4.492-15.838z" fill="#633a1e"/></g></g><g><g><g><path d="m286.203 497.306h-59.794v-59.087c0-16.512 13.385-29.897 29.897-29.897 16.512 0 29.897 13.385 29.897 29.897z" fill="#a56032"/><path d="m256.306 408.322v88.984h29.897v-59.087c0-16.512-13.385-29.897-29.897-29.897z" fill="#854d29"/></g><g><path d="m278.203 342.716h-43.794c-4.418 0-8-3.582-8-8v-101.088c0-16.512 13.385-29.897 29.897-29.897 16.512 0 29.897 13.385 29.897 29.897v101.087c0 4.419-3.581 8.001-8 8.001z" fill="#457899"/><path d="m256.306 203.731v138.984h21.897c4.418 0 8-3.582 8-8v-101.087c0-16.511-13.385-29.897-29.897-29.897z" fill="#2b495d"/></g></g><g><path d="m330.452 356.012c-8.284 0-15 6.716-15 15s6.716 15 15 15h15.843v-30z" fill="#736e6e"/><path d="m332.108 435.019c0 8.01 6.283 14.534 14.187 14.959v-29.918c-7.904.425-14.187 6.949-14.187 14.959z" fill="#736e6e"/><g fill="#c7bdb8"><path d="m183.324 387.873h-17.006v30h17.006c8.284 0 15-6.716 15-15s-6.716-15-15-15z"/><path d="m167.131 437.814h-.813v30h.813c8.284 0 15-6.716 15-15s-6.716-15-15-15z"/></g></g></g></g></g></g><g><path d="m497.613 512.306h-482.613c-8.284 0-15-6.716-15-15s6.716-15 15-15h482.613c8.284 0 15 6.716 15 15s-6.716 15-15 15z" fill="#8fd4a9"/><path d="m497.613 482.306h-241.307v30h241.306c8.284 0 15-6.716 15-15s-6.715-15-14.999-15z" fill="#62a793"/></g></g></svg>