<svg id="Layer_1" enable-background="new 0 0 512 512" height="512" viewBox="0 0 512 512" width="512" xmlns="http://www.w3.org/2000/svg"><g><path d="m288.133 497h-64.267c-8.284 0-15-6.716-15-15v-49.267c0-8.284 6.716-15 15-15h64.267c8.284 0 15 6.716 15 15v49.267c0 8.284-6.716 15-15 15z" fill="#d26432"/><path d="m303.133 482v-49.267c0-8.284-6.716-15-15-15h-32.133v79.267h32.133c8.284 0 15-6.716 15-15z" fill="#a54628"/><path d="m368.467 512h-224.934c-8.284 0-15-6.716-15-15s6.716-15 15-15h224.934c8.284 0 15 6.716 15 15s-6.716 15-15 15z" fill="#c8ff50"/><path d="m416.667 447.733h-321.334c-5.434 0-10.443-2.939-13.094-7.683s-2.529-10.551.319-15.179l64.267-104.434c2.73-4.437 7.566-7.139 12.775-7.139h192.8c5.209 0 10.045 2.702 12.775 7.139l64.267 104.434c2.848 4.628 2.97 10.435.319 15.179s-7.66 7.683-13.094 7.683z" fill="#4ec95f"/><path d="m383.467 497c0-8.284-6.716-15-15-15h-112.467v30h112.467c8.284 0 15-6.716 15-15z" fill="#87e752"/><path d="m429.761 440.051c2.651-4.744 2.529-10.551-.319-15.179l-64.267-104.434c-2.73-4.437-7.566-7.139-12.775-7.139h-96.4v134.434h160.667c5.434 0 10.443-2.939 13.094-7.682z" fill="#14aa6b"/><path d="m384.533 343.3h-257.066c-5.434 0-10.443-2.939-13.094-7.683s-2.529-10.551.319-15.179l64.267-104.434c2.73-4.437 7.566-7.139 12.775-7.139h128.533c5.209 0 10.045 2.702 12.775 7.139l64.267 104.434c2.848 4.628 2.97 10.435.319 15.179-2.651 4.743-7.661 7.683-13.095 7.683z" fill="#87e752"/><path d="m397.627 335.617c2.651-4.744 2.529-10.551-.319-15.179l-64.267-104.434c-2.73-4.437-7.566-7.139-12.775-7.139h-64.266v134.435h128.533c5.434 0 10.444-2.94 13.094-7.683z" fill="#4ec95f"/><path d="m352.4 238.866h-192.8c-5.434 0-10.443-2.939-13.094-7.683s-2.529-10.551.319-15.179l64.267-104.433c2.73-4.437 7.566-7.139 12.775-7.139h64.267c5.209 0 10.045 2.702 12.775 7.139l64.267 104.433c2.848 4.628 2.97 10.435.319 15.179-2.652 4.744-7.661 7.683-13.095 7.683z" fill="#c8ff50"/><path d="m365.494 231.184c2.651-4.744 2.529-10.551-.319-15.179l-64.267-104.433c-2.73-4.437-7.566-7.139-12.775-7.139h-32.133v134.433h96.4c5.434 0 10.443-2.939 13.094-7.682z" fill="#87e752"/><path d="m320.267 134.434h-128.534c-5.434 0-10.443-2.939-13.094-7.683s-2.529-10.551.319-15.179l64.267-104.433c2.73-4.437 7.566-7.139 12.775-7.139s10.045 2.702 12.775 7.139l64.267 104.434c2.848 4.628 2.97 10.435.319 15.179-2.651 4.742-7.66 7.682-13.094 7.682z" fill="#87e752"/><path d="m333.361 126.751c2.651-4.744 2.529-10.551-.319-15.179l-64.267-104.433c-2.73-4.437-7.566-7.139-12.775-7.139v134.434h64.267c5.434 0 10.443-2.94 13.094-7.683z" fill="#4ec95f"/></g></svg>